<svg id="Layer_1" xmlns="http://www.w3.org/2000/svg" xmlns:xlink="http://www.w3.org/1999/xlink" viewBox="0 0 393 317" style="enable-background:new 0 0 393 317;"><style>.st0{fill:#6D7178;}
.st1{fill:#DA1A32;}
.st2{fill-rule:evenodd;clip-rule:evenodd;fill:#DA1A32;}
.st3{fill-rule:evenodd;clip-rule:evenodd;fill:#6D7178;}</style><g><rect x="10.6" y="273.1" class="st0" width="3.8" height="28.8"/><path class="st0" d="M20.7 301.9V281h3.2v3c1.5-2.3 3.7-3.4 6.6-3.4 1.3.0 2.4.2 3.5.7s1.8 1 2.4 1.8c.5.7.9 1.6 1.1 2.6.1.7.2 1.8.2 3.4v12.8h-3.5v-12.7c0-1.4-.1-2.5-.4-3.2s-.8-1.3-1.5-1.7c-.7-.4-1.5-.6-2.5-.6-1.5.0-2.8.5-3.9 1.4-1.1 1-1.6 2.8-1.6 5.4v11.4H20.7z"/><path class="st0" d="M42.4 303.6l3.4.5c.1 1.1.5 1.8 1.2 2.3.9.7 2.1 1 3.6 1 1.6.0 2.9-.3 3.8-1s1.5-1.6 1.8-2.8c.2-.7.3-2.2.3-4.5-1.5 1.8-3.5 2.7-5.8 2.7-2.9.0-5.1-1-6.7-3.1s-2.4-4.6-2.4-7.4c0-2 .4-3.8 1.1-5.5s1.8-3 3.1-3.9c1.4-.9 3-1.4 4.8-1.4 2.5.0 4.5 1 6.1 3V281H60v18c0 3.2-.3 5.6-1 6.9-.7 1.4-1.7 2.4-3.1 3.2s-3.2 1.2-5.3 1.2c-2.5.0-4.5-.6-6-1.7C43 307.6 42.3 305.9 42.4 303.6m2.9-12.5c0 2.7.5 4.7 1.6 6s2.5 1.9 4.1 1.9 3-.6 4.1-1.9c1.1-1.3 1.7-3.2 1.7-5.9.0-2.6-.6-4.5-1.7-5.8s-2.5-1.9-4.1-1.9-2.9.6-4 1.9C45.8 286.7 45.3 288.6 45.3 291.1"/><path class="st0" d="M79.6 295.2l3.7.5c-.6 2.1-1.6 3.8-3.2 5-1.6 1.2-3.6 1.8-6 1.8-3.1.0-5.5-.9-7.3-2.8-1.8-1.9-2.7-4.5-2.7-7.9.0-3.5.9-6.2 2.7-8.2 1.8-1.9 4.2-2.9 7-2.9s5.1 1 6.8 2.9c1.8 1.9 2.7 4.6 2.7 8 0 .2.0.5.0.9H67.8c.1 2.3.8 4.1 1.9 5.3 1.2 1.2 2.6 1.8 4.4 1.8 1.3.0 2.4-.3 3.3-1C78.4 297.8 79.1 296.7 79.6 295.2M68 289.5h11.7c-.2-1.8-.6-3.1-1.3-3.9-1.1-1.4-2.6-2-4.4-2-1.6.0-3 .5-4.1 1.6C68.7 286.2 68.1 287.7 68 289.5"/><path class="st0" d="M87.7 301.9V281h3.2v3c1.5-2.3 3.7-3.4 6.6-3.4 1.3.0 2.4.2 3.5.7s1.8 1 2.4 1.8c.5.7.9 1.6 1.1 2.6.1.7.2 1.8.2 3.4v12.8h-3.5v-12.7c0-1.4-.1-2.5-.4-3.2-.3-.7-.8-1.3-1.5-1.7s-1.5-.6-2.5-.6c-1.5.0-2.8.5-3.9 1.4-1.1 1-1.6 2.8-1.6 5.4v11.4H87.7z"/><path class="st0" d="M110.1 273.1h3.5v4.1h-3.5V273.1zM110.1 281h3.5v20.9h-3.5V281z"/><path class="st0" d="M133.2 295.2l3.7.5c-.6 2.1-1.6 3.8-3.2 5s-3.6 1.8-6 1.8c-3.1.0-5.5-.9-7.3-2.8-1.8-1.9-2.7-4.5-2.7-7.9.0-3.5.9-6.2 2.7-8.2 1.8-1.9 4.2-2.9 7-2.9s5.1 1 6.8 2.9c1.8 1.9 2.7 4.6 2.7 8 0 .2.0.5.0.9h-15.6c.1 2.3.8 4.1 1.9 5.3 1.2 1.2 2.6 1.8 4.4 1.8 1.3.0 2.4-.3 3.3-1C132 297.8 132.7 296.7 133.2 295.2M121.6 289.5h11.7c-.2-1.8-.6-3.1-1.3-3.9-1.1-1.4-2.6-2-4.4-2-1.6.0-3 .5-4.1 1.6C122.3 286.2 121.7 287.7 121.6 289.5"/><path class="st0" d="M141.2 301.9V281h3.2v3.2c.8-1.5 1.6-2.5 2.3-2.9.7-.5 1.4-.7 2.3-.7 1.2.0 2.4.4 3.6 1.1l-1.2 3.3c-.9-.5-1.7-.8-2.6-.8-.8.0-1.5.2-2.1.7s-1.1 1.1-1.3 1.9c-.4 1.3-.6 2.6-.6 4.1v10.9H141.2z"/><path class="st0" d="M153.3 291.5c0-3.9 1.1-6.7 3.2-8.6 1.8-1.5 4-2.3 6.6-2.3 2.9.0 5.2.9 7 2.8 1.8 1.9 2.7 4.5 2.7 7.8.0 2.7-.4 4.8-1.2 6.3-.8 1.5-2 2.7-3.5 3.6-1.5.8-3.2 1.3-5 1.3-2.9.0-5.3-.9-7.1-2.8C154.2 297.7 153.3 295 153.3 291.5M157 291.5c0 2.7.6 4.7 1.7 6 1.2 1.3 2.6 2 4.4 2s3.2-.7 4.4-2c1.2-1.3 1.7-3.4 1.7-6.1.0-2.6-.6-4.5-1.8-5.9-1.2-1.3-2.6-2-4.4-2s-3.2.7-4.4 2C157.6 286.8 157 288.8 157 291.5"/><path class="st0" d="M175.6 295.7l3.5-.5c.2 1.4.7 2.5 1.6 3.2s2.1 1.1 3.8 1.1c1.6.0 2.8-.3 3.6-1 .8-.7 1.2-1.4 1.2-2.3.0-.8-.3-1.4-1-1.9-.5-.3-1.7-.7-3.6-1.2-2.6-.7-4.4-1.2-5.4-1.7s-1.8-1.1-2.3-2c-.5-.8-.8-1.8-.8-2.8.0-.9.2-1.8.6-2.6s1-1.5 1.7-2c.5-.4 1.3-.7 2.2-1 1-.3 2-.4 3.1-.4 1.6.0 3.1.2 4.3.7 1.2.5 2.2 1.1 2.7 1.9.6.8 1 1.9 1.2 3.2l-3.5.5c-.2-1.1-.6-1.9-1.4-2.5s-1.8-.9-3.2-.9c-1.6.0-2.8.3-3.5.8s-1 1.2-1 1.9c0 .5.1.9.4 1.2.3.4.7.7 1.4.9.4.1 1.4.4 3.1.9 2.5.7 4.2 1.2 5.2 1.6 1 .4 1.8 1 2.3 1.9.6.8.8 1.8.8 3s-.3 2.3-1 3.3-1.7 1.8-3 2.4c-1.3.6-2.8.9-4.4.9-2.7.0-4.8-.6-6.2-1.7C176.9 299.6 176 297.9 175.6 295.7"/><path class="st1" d="M202 301.9l11.1-28.8h4.1l11.8 28.8h-4.3l-3.4-8.7h-12l-3.2 8.7H202zM210.3 290.1h9.8l-3-8c-.9-2.4-1.6-4.4-2-6-.4 1.8-.9 3.7-1.6 5.5L210.3 290.1z"/><path class="st1" d="M230.1 295.7l3.5-.5c.2 1.4.7 2.5 1.6 3.2s2.2 1.1 3.8 1.1c1.6.0 2.8-.3 3.6-1 .8-.7 1.2-1.4 1.2-2.3.0-.8-.3-1.4-1-1.9-.5-.3-1.7-.7-3.6-1.2-2.6-.7-4.4-1.2-5.4-1.7s-1.8-1.1-2.3-2c-.5-.8-.8-1.8-.8-2.8.0-.9.2-1.8.6-2.6s1-1.5 1.7-2c.5-.4 1.3-.7 2.2-1 1-.3 2-.4 3.1-.4 1.6.0 3.1.2 4.3.7 1.2.5 2.2 1.1 2.7 1.9.6.8 1 1.9 1.2 3.2l-3.5.5c-.2-1.1-.6-1.9-1.4-2.5s-1.8-.9-3.2-.9c-1.6.0-2.8.3-3.5.8s-1 1.2-1 1.9c0 .5.1.9.4 1.2.3.4.7.7 1.4.9.4.1 1.4.4 3.1.9 2.5.7 4.2 1.2 5.2 1.6 1 .4 1.8 1 2.3 1.9.6.8.8 1.8.8 3s-.3 2.3-1 3.3-1.7 1.8-3 2.4c-1.3.6-2.8.9-4.4.9-2.7.0-4.8-.6-6.2-1.7C231.4 299.6 230.5 297.9 230.1 295.7"/><path class="st1" d="M250.3 291.5c0-3.9 1.1-6.7 3.2-8.6 1.8-1.5 4-2.3 6.6-2.3 2.9.0 5.2.9 7 2.8 1.8 1.9 2.7 4.5 2.7 7.8.0 2.7-.4 4.8-1.2 6.3s-2 2.7-3.5 3.6c-1.5.8-3.2 1.3-5 1.3-2.9.0-5.3-.9-7.1-2.8C251.2 297.7 250.3 295 250.3 291.5M253.9 291.5c0 2.7.6 4.7 1.7 6 1.2 1.3 2.6 2 4.4 2s3.2-.7 4.4-2 1.7-3.4 1.7-6.1c0-2.6-.6-4.5-1.8-5.9-1.2-1.3-2.6-2-4.4-2-1.8.0-3.2.7-4.4 2C254.5 286.8 253.9 288.8 253.9 291.5"/><path class="st1" d="M287.6 294.3l3.5.5c-.4 2.4-1.4 4.3-2.9 5.6-1.6 1.4-3.5 2-5.8 2-2.9.0-5.2-.9-6.9-2.8-1.7-1.9-2.6-4.5-2.6-8 0-2.3.4-4.2 1.1-5.9.7-1.7 1.9-3 3.4-3.8s3.2-1.3 5-1.3c2.3.0 4.1.6 5.6 1.7 1.4 1.1 2.4 2.8 2.8 4.9l-3.4.5c-.3-1.4-.9-2.5-1.7-3.2s-1.8-1.1-3-1.1c-1.8.0-3.2.6-4.3 1.9-1.1 1.3-1.7 3.3-1.7 6.1s.5 4.8 1.6 6.1 2.5 1.9 4.2 1.9c1.4.0 2.5-.4 3.5-1.3C286.7 297.4 287.3 296 287.6 294.3"/><path class="st1" d="M294.1 273.1h3.5v4.1h-3.5V273.1zM294.1 281h3.5v20.9h-3.5V281z"/><path class="st1" d="M316.6 299.3c-1.3 1.1-2.6 1.9-3.8 2.4s-2.5.7-3.9.7c-2.3.0-4.1-.6-5.3-1.7-1.2-1.1-1.8-2.6-1.8-4.3.0-1 .2-2 .7-2.8s1.1-1.5 1.8-2c.8-.5 1.6-.9 2.5-1.2.7-.2 1.7-.4 3.1-.5 2.9-.3 5-.7 6.3-1.2.0-.5.0-.8.0-.9.0-1.4-.3-2.5-1-3-.9-.8-2.2-1.2-4-1.2-1.7.0-2.9.3-3.7.9-.8.6-1.4 1.6-1.8 3.1l-3.5-.5c.3-1.5.8-2.7 1.6-3.6.7-.9 1.8-1.6 3.1-2.1 1.4-.5 2.9-.7 4.7-.7s3.2.2 4.3.6c1.1.4 1.9.9 2.5 1.6.5.6.9 1.4 1.1 2.4.1.6.2 1.7.2 3.3v4.7c0 3.3.1 5.4.2 6.2.1.9.4 1.7.9 2.5h-3.7C316.9 301.2 316.7 300.3 316.6 299.3M316.3 291.4c-1.3.5-3.2 1-5.8 1.3-1.5.2-2.5.4-3.1.7s-1.1.6-1.4 1.1c-.3.5-.5 1.1-.5 1.7.0.9.4 1.7 1.1 2.4.7.6 1.8.9 3.1.9 1.4.0 2.6-.3 3.6-.9 1.1-.6 1.8-1.4 2.3-2.4.4-.8.6-2 .6-3.5V291.4z"/><path class="st1" d="M338.8 301.9v-2.6c-1.3 2.1-3.3 3.1-5.8 3.1-1.7.0-3.2-.5-4.6-1.4-1.4-.9-2.5-2.2-3.2-3.8-.8-1.6-1.2-3.5-1.2-5.7.0-2.1.3-4 1-5.7s1.7-3 3.1-3.9c1.4-.9 2.9-1.4 4.7-1.4 1.3.0 2.4.3 3.4.8s1.8 1.2 2.4 2.1v-10.3h3.5v28.8H338.8zm-11.1-10.4c0 2.7.6 4.7 1.7 6 1.1 1.3 2.5 2 4 2s2.9-.6 3.9-1.9c1.1-1.3 1.6-3.2 1.6-5.8.0-2.9-.5-5-1.7-6.3-1.1-1.3-2.5-2-4.1-2s-2.9.6-3.9 1.9C328.2 286.7 327.7 288.7 327.7 291.5"/><path class="st1" d="M346.3 291.5c0-3.9 1.1-6.7 3.2-8.6 1.8-1.5 4-2.3 6.6-2.3 2.9.0 5.2.9 7 2.8 1.8 1.9 2.7 4.5 2.7 7.8.0 2.7-.4 4.8-1.2 6.3s-2 2.7-3.5 3.6c-1.5.8-3.2 1.3-5 1.3-2.9.0-5.3-.9-7.1-2.8S346.3 295 346.3 291.5M350 291.5c0 2.7.6 4.7 1.7 6 1.2 1.3 2.6 2 4.4 2 1.8.0 3.2-.7 4.4-2s1.7-3.4 1.7-6.1c0-2.6-.6-4.5-1.8-5.9-1.2-1.3-2.6-2-4.4-2-1.8.0-3.2.7-4.4 2C350.5 286.8 350 288.8 350 291.5"/><path class="st1" d="M368.6 295.7l3.5-.5c.2 1.4.7 2.5 1.6 3.2s2.2 1.1 3.8 1.1 2.8-.3 3.6-1 1.2-1.4 1.2-2.3c0-.8-.3-1.4-1-1.9-.5-.3-1.7-.7-3.6-1.2-2.6-.7-4.4-1.2-5.4-1.7s-1.8-1.1-2.3-2c-.5-.8-.8-1.8-.8-2.8.0-.9.2-1.8.6-2.6.4-.8 1-1.5 1.7-2 .6-.4 1.3-.7 2.3-1s2-.4 3.1-.4c1.6.0 3.1.2 4.3.7s2.2 1.1 2.7 1.9c.6.8 1 1.9 1.2 3.2l-3.5.5c-.2-1.1-.6-1.9-1.4-2.5-.8-.6-1.8-.9-3.2-.9-1.6.0-2.8.3-3.5.8s-1 1.2-1 1.9c0 .5.1.9.4 1.2.3.4.7.7 1.4.9.4.1 1.4.4 3.1.9 2.5.7 4.2 1.2 5.2 1.6 1 .4 1.8 1 2.3 1.9.6.8.8 1.8.8 3s-.3 2.3-1 3.3-1.7 1.8-3 2.4c-1.3.6-2.8.9-4.4.9-2.7.0-4.8-.6-6.2-1.7C369.9 299.6 369 297.9 368.6 295.7"/><path class="st2" d="M266.7 75.5c-10.6 1.3-13.8-6-20.3-12.1-14.7-13.7-34.3-28.9-65.5-26.1-35.1 3.1-56.3 29.4-73.7 51.5-3.7-.1-5.5 1.7-8.9 1.9 16.9-18.6 40.8-41.4 60.4-61.7 11-11.4 30.1-27.9 48.9-13.3 5.2 4 9.8 10.4 14.6 15.3 14.7 14.7 29.7 28.9 44.5 44.5"/><path class="st3" d="M150.1 51.2c2.9 11-6.7 15.1-12.7 21.6-12.4 13.5-27.3 33.2-25.4 61 2.3 35.5 28.5 58.1 52.1 76.3.2 3.4 2 5.2 1.9 8.9-20.1-21-48.8-44.1-69.3-66.1-5.9-6.3-15.4-18.8-11.4-31.8 2.4-8 7.8-12.9 14-19.1 16-15.9 36.9-36.2 50.8-50.8"/><path class="st3" d="M296.8 153.7c1 2.2-2.2 3.4-3.2 4.5-17.4 17.6-36.4 36.8-54.7 55.3-9.7 9.8-26 29.1-46.4 18.4-10.2-5.3-21.9-21.4-30.5-29.9-10.8-10.6-21.5-20.2-30.5-29.9-.7-.6-4.7-3.1-1.9-3.2 9.8-.5 13.9 6.6 20.3 12.7 14.3 13.7 33.8 27.6 63.6 25.4 18.3-1.3 32.6-10.1 44.5-19.1 12-9.1 21.7-19.9 30.5-32.4 3.4.2 4.8-1.5 7.6-1.9H296.8z"/><path class="st2" d="M227 25.4c.1-.7.6-.4.6.0 19.9 18.1 41.4 40.5 62.9 61 10.5 10 27.1 28 13.3 45.8-7.8 10-20.2 19.6-30.5 29.9-10.6 10.6-20.5 21.6-30.5 29.9v-8.3c18.1-17.3 40.4-37.9 38.8-71.2-2-38.7-29-60-52.1-78.2C228.6 31.4 228.2 28 227 25.4"/><path class="st0" d="M159.4 134.9c-6.9.0-12.5-5.5-12.5-12.5.0-6.9 5.6-12.6 12.5-12.6 3.8.0 7.3 1.7 9.6 4.4h9.6c-3.2-6.8-10.6-12.6-19.2-12.6-11.5.0-20.8 9.4-20.8 20.9s9.3 20.7 20.8 20.7c8.5.0 15.8-4.4 19-12.6h-9.7C166.4 133.3 163.1 134.9 159.4 134.9"/><path class="st1" d="M203.2 135.2c-6.9.0-12.5-5.5-12.5-12.4s5.6-12.5 12.5-12.5c3.8.0 7.2 1.7 9.5 4.4h9.6c-3.1-6.8-10.5-12.6-19.1-12.6-11.4.0-20.7 9.3-20.7 20.8.0 11.4 9.3 20.6 20.7 20.6 8.5.0 15.7-4.4 19-12.5h-9.7C210.1 133.6 206.8 135.2 203.2 135.2"/><path class="st0" d="M239.6 122.1h-6.1v-12.9h6.8s6.8-.8 6.8 5.7C247.1 122.8 239.6 122.1 239.6 122.1m15.4-7.5c0-2.7-2.2-12.6-13.7-12.6h-15.1v41.5h8v-18.8l11.3 18.8h9.5l-10-16.2C245 127.3 255.5 125.4 255 114.6"/><rect x="10.3" y="253.4" class="st2" width="375.7" height="1.3"/></g></svg>