<?xml version="1.0" encoding="UTF-8"?>
<svg id="Capa_1" data-name="Capa 1" xmlns="http://www.w3.org/2000/svg" viewBox="0 0 1920 1080">
  <defs>
    <style>
      .cls-1 {
        fill: #fff;
        stroke-width: 0px;
      }
    </style>
  </defs>
  <path class="cls-1" d="M1646.4,457.46c6.01,4.23,9.94,11.19,9.94,19.09,0,11.4-8.19,20.89-18.98,22.89,9.81-2.02,17.17-10.69,17.17-21.08,0-11.54-9.04-20.92-20.39-21.51-.37-.03-.74-.03-1.12-.03-4.52,0-8.99.21-13.4.66-58.59,5.72-106.28,48.57-119.2,104.74,6.54,4.12,12.71,8.96,18.4,14.46,4.6-31.98,22.54-61.8,49.92-79.99,12.47-8.37,26.53-14.14,41.15-17.17.56-.11,1.09-.21,1.62-.32,5.87-1.14,11.83-1.83,17.81-2.07.53-1.54,1.97-2.68,3.69-2.68,2.13,0,3.88,1.75,3.88,3.91s-1.75,3.88-3.88,3.88c-1.65,0-3.06-1.01-3.62-2.45-6.03.19-11.91.85-17.65,1.91-.48.08-.93.19-1.41.29-47.64,9.6-83.63,48.97-89.96,96.23l.48.48c8.05,8.16,14.73,17.28,19.96,27.11-.61-4.23-.9-8.56-.9-12.95,0-50.96,40.96-92.35,91.76-93.04h.13c.4-.03.8-.03,1.2-.03s.8,0,1.2.03h.13c50.77.69,91.74,42.08,91.74,93.04s-41.68,93.09-93.07,93.09c-34.37,0-64.41-18.63-80.52-46.36,1.33,7.31,1.94,14.83,1.83,22.44-.05,4.15-.35,8.29-.85,12.36-.05.56-.13,1.12-.19,1.65-1.06,7.82-2.95,15.47-5.56,22.83,23.31,18.82,52.98,30.07,85.28,30.07,75.12,0,136.05-60.93,136.05-136.08,0-70.63-53.83-128.69-122.68-135.41Z"/>
  <path class="cls-1" d="M1544.61,699.71c-15.9,42.35-56.57,72.84-104.12,73.5-8.37.13-16.54-.66-24.4-2.29-.9-.19-1.83-.37-2.74-.61-3.62-.82-7.18-1.83-10.69-3.03-2.61-.88-5.18-1.86-7.71-2.92-.85-.35-1.7-.72-2.55-1.12-3-1.38-5.98-2.87-8.85-4.49-1.86-1.04-3.72-2.15-5.53-3.32-2.29-1.46-4.52-3-6.67-4.63-2.18-1.65-4.28-3.32-6.33-5.1-1.38-1.2-2.71-2.39-4.01-3.64-21.56-20.55-34.98-49.55-34.98-81.66h42.9c0,3.62.27,7.18.8,10.66.37,2.31.82,4.57,1.41,6.83.85,3.35,1.97,6.59,3.3,9.73.88,2.1,1.86,4.15,2.95,6.11.53.98,1.09,1.97,1.67,2.92,1.17,1.94,2.42,3.8,3.78,5.58,5.37,7.18,12.07,13.29,19.78,17.97,1.59.98,3.24,1.89,4.92,2.71,10.58,5.32,22.68,8.03,35.49,7.28,34.72-1.99,63.13-30.01,65.61-64.7.27-3.91.24-7.76-.11-11.54,8.69,17.7,21.08,33.28,36.1,45.75Z"/>
  <path class="cls-1" d="M1523.11,456.85l-9.2,25.41c-3.8,10.53-13.8,17.54-25.01,17.54l-92.35-.05-.13,47.8s35.51.03,44.29.03c20.76,0,40.17,5.82,56.75,15.92-2.05,9.46-3.14,19.3-3.14,29.37s1.06,19.83,3.11,29.27c-12.31-18.93-33.52-31.53-57.66-31.69-3.62-.03-8.43-.05-13.96-.03-27.59-.05-72.73.03-72.73.03l.05-133.6h169.97Z"/>
  <path class="cls-1" d="M1550.91,673.71c-.96,8.08-2.79,15.9-5.37,23.37-16.96-14.25-30.41-32.59-38.78-53.48-1.6-3.96-3-8-4.23-12.12-3.61-12.23-5.56-25.2-5.56-38.6,0-9.54.98-18.87,2.87-27.86,6.7,4.31,12.92,9.33,18.56,14.97-1.38,11.72-.93,23.69,1.49,35.43,5.02,23.76,16.19,43.38,31.02,58.3Z"/>
  <path class="cls-1" d="M1551.68,662.01c-.05,3.38-.24,6.7-.58,10-14.19-14.7-24.8-33.81-29.59-56.91-2.21-11.38-2.66-22.62-1.52-33.49,9.73,10.13,17.62,22.12,23.07,35.33,1.7,4.09,3.16,8.29,4.36,12.6,2.92,10.31,4.41,21.24,4.25,32.48Z"/>
  <path class="cls-1" d="M1747.47,597.1c-.72,21.08-7.36,41.92-19.09,59.49-43.14,63.77-126.93,65.05-175.07,19.46.05-.53.13-1.09.19-1.65,47.4,46.23,131.34,45.4,174.62-18,11.78-17.44,18.5-38.23,19.35-59.31Z"/>
  <g>
    <path class="cls-1" d="M1596.42,773.44v-1.63c-1.54,1.05-4.3,2.28-7.81,2.28-4.61,0-7.24-2.28-7.24-7.07v-.92c0-6.58,4.74-7.46,11.67-7.46h2.94v-1.54c0-3.51-.75-4.21-5.13-4.21-2.46,0-5.05.17-7.77.48v-3.91c1.05-.44,4.74-1.36,8.73-1.36,7.9,0,9.96,2.68,9.96,9v16.33h-5.35ZM1596.11,762.2h-3.07c-4.26,0-6.06.48-6.06,3.73v1.05c0,2.28,1.4,2.9,3.47,2.9,2.37,0,4.78-.97,5.66-1.49v-6.19Z"/>
    <path class="cls-1" d="M1632.34,773.44v-15.67c0-3.55-.62-4.78-3.47-4.78-1.67,0-3.86.61-6.5,1.67v18.78h-5.75v-24.71h5.53v1.98c2.68-1.54,5.36-2.59,8.12-2.59,6.98,0,7.9,4.04,7.9,9.65v15.67h-5.84ZM1631.91,746.18c-1.49,0-2.9-.48-4.52-1.54l-1.93-1.23c-.97-.7-1.62-1.05-2.46-1.05-1.14,0-1.45.84-1.45,2.33v1.23h-3.6v-1.23c0-3.99,1.76-5.84,4.92-5.84,1.54,0,2.63.39,4.26,1.4l1.98,1.27c.96.62,1.67,1.05,2.54,1.05,1.19,0,1.45-.75,1.45-2.28v-1.19h3.55v1.19c0,3.99-1.62,5.88-4.74,5.88Z"/>
    <path class="cls-1" d="M1663.4,774.1c-7.2,0-11.15-3.69-11.15-11.5v-3.03c0-7.77,3.95-11.46,11.15-11.46s11.15,3.69,11.15,11.46v3.03c0,7.81-3.95,11.5-11.15,11.5ZM1668.8,759.57c0-4.74-1.63-6.5-5.4-6.5s-5.4,1.76-5.4,6.5v3.03c0,4.74,1.62,6.54,5.4,6.54s5.4-1.8,5.4-6.54v-3.03Z"/>
    <path class="cls-1" d="M1696.34,774.05c-3.42,0-7.33-.62-8.43-.97v-4.12c1.27.09,5,.57,8.16.57,3.6,0,4.56-.83,4.56-2.59s-.75-2.15-4.39-3.6l-1.89-.75c-4.65-1.84-6.8-3.95-6.8-7.77,0-4.96,3.29-6.72,9.88-6.72,2.81,0,6.5.57,7.72.97v4.04c-2.76-.26-5.49-.44-7.64-.44-2.98,0-4.25.26-4.25,2.02,0,1.58.88,2.02,3.9,3.2l1.98.79c5.31,2.15,7.15,3.82,7.2,7.9,0,4.65-3.12,7.46-10.01,7.46Z"/>
  </g>
  <g>
    <path class="cls-1" d="M999.98,468.22s48.58-43.8,109.5-44.09v43.98l-109.5.11Z"/>
    <g>
      <path class="cls-1" d="M171.24,729.18v46.47h-20.32v-145.79h52.9c32.32,0,47.87,15.77,47.87,48.13s-15.55,51.19-47.87,51.19h-32.58ZM203.83,709.66c18.68,0,27.06-12.17,27.06-31.67s-8.38-28.63-27.06-28.63h-32.58v60.3h32.58Z"/>
      <path class="cls-1" d="M334.23,723.12h-36.76v52.53h-20.36v-145.79h54.38c32.13,0,47.7,13.47,47.7,45.59,0,22.29-7.99,35.49-24.76,42.19l25.58,58.01h-22.5l-23.28-52.53ZM331.48,649.18h-34.01v54.65h34.21c19.79,0,26.48-11.15,26.48-27.98,0-18.04-8.62-26.67-26.68-26.67Z"/>
      <path class="cls-1" d="M399.96,703.58c0-48.31,13-76.02,57.96-76.02s58.18,27.52,58.18,76.02-13.06,74.36-58.18,74.36-57.96-25.65-57.96-74.36ZM494.88,703.58c0-36.12-6.96-56.27-36.97-56.27s-36.99,19.98-36.99,56.27,6.74,54.61,36.99,54.61,36.97-17.23,36.97-54.61Z"/>
      <path class="cls-1" d="M543.59,629.86h34.23l37.58,116.79,37.78-116.79h33.82v145.79h-20.38v-120.99h-3.2l-37.32,115.49h-21.63l-37.43-115.49h-3.12v120.99h-20.33v-145.79Z"/>
      <path class="cls-1" d="M721.22,629.86h20.38v145.79h-20.38v-145.79Z"/>
      <path class="cls-1" d="M832.72,700.41h40.53v72.47s-29.84,5.06-47.66,5.06c-44.56,0-57.14-27.29-57.14-75.2s13.24-75.18,56.48-75.18c22.05,0,48.32,5.9,48.32,5.9l-.81,17.85s-25.63-3.77-44.76-3.77c-30.69,0-38.23,15.98-38.23,55.21s6.52,55.45,37.6,55.45c11.12,0,25.39-2.32,26.04-2.32v-37.13h-20.38v-18.31Z"/>
      <path class="cls-1" d="M928.07,629.86h41.77l36.96,145.54h-20.59l-9.43-32.53h-56.7l-9.05,32.78h-20.37l37.42-145.79ZM924.48,723.35h48.11l-18.75-74.56h-10.26l-19.1,74.56Z"/>
      <path class="cls-1" d="M1111.16,650.65s-29.41-3.56-41.59-3.56c-18.9,0-28.56,6.3-28.56,20.36,0,15.57,8.61,18.91,33.37,25,29.66,7.76,41.38,15.57,41.38,41.15,0,30.89-18.86,44.1-48.28,44.1-15.77,0-44.32-4.83-44.32-4.83l2.11-18.48s27.08,3.56,41.99,3.56c18.88,0,28.13-6.5,28.13-23.71,0-13.84-7.34-18.27-30.03-23.53-30.85-7.15-44.92-15.76-44.92-42.82s18.88-40.54,49.13-40.54c16.21,0,43.3,4.85,43.3,4.85l-1.7,18.44Z"/>
    </g>
    <path class="cls-1" d="M513.69,522.76c27.6,14.61,54.38,28.77,89.26,38.62l-.24-.11c-5.4-2.4-10.67-4.96-15.8-7.66l-1.03-.54c-4.9-2.57-9.63-5.27-14.26-8.07l-1.11-.68c-4.84-2.93-9.54-5.97-14.09-9.08l-.23-.17c-4.51-3.09-8.94-6.28-13.24-9.48l-1.23-.96c-4.11-3.1-8.12-6.25-12.06-9.43l-.92-.75c-4.04-3.28-7.98-6.58-11.9-9.9l-1.52-1.3c-3.46-2.98-6.87-5.96-10.24-8.94-.89-.79-1.79-1.57-2.66-2.35-2.47-2.19-4.92-4.38-7.36-6.55-1.01-.88-2-1.78-2.97-2.64-42.36-37.87-78.96-70.58-131.97-70.58-2.07,0-4.2.07-6.31.16l-2.14.16c-1.4.08-2.82.17-4.23.3-.89.11-1.78.2-2.68.3-1.26.15-2.52.3-3.8.47-.95.13-1.95.28-2.94.45-1.2.19-2.41.39-3.61.6-1.01.2-2.04.43-3.07.63-1.2.24-2.39.48-3.58.77-1.05.23-2.13.52-3.21.77-1.19.29-2.4.6-3.59.92-1.06.28-2.16.61-3.26.93-1.2.37-2.43.72-3.66,1.09-1.1.34-2.18.71-3.28,1.05l-2.32.8v46.69c104.1.98,155.5,28.19,205.25,54.48"/>
    <path class="cls-1" d="M727.31,324.82s-2.77-1.07-7.64-2.56c-17.63-5.99-66.16-20.21-129.96-20.21-104.88,0-190.86,57.42-211.71,72.69-3.71,2.51-5.77,4.02-5.77,4.02-.49.77.54.38.54.38,3.26-1.43,6.64-2.84,10.11-4.22,17.52-6.25,57.81-18.55,102.85-17.86,0,0,85.11-48.7,230.43-33.4,3.65.49,7.24,1.05,10.71,1.65,0,0,1.09.14.43-.49Z"/>
    <path class="cls-1" d="M1024.45,414.38c-106.85,0-136.07,19.31-230.46,19.31-128.58,0-200.16-67.73-305.53-67.73-61.44,0-101.97,15.14-113.5,20.06-2.25.88-3.66,1.41-3.66,1.41-.22.27.22.22.22.22,1.66-.34,3.41-.66,5.16-.96v-.02c9.22-1.56,29.41-4.63,46.76-4.63,132.43,0,184.03,89.59,312.06,89.59,92.51,0,188.42-49.19,288.73-49.19,11.46,0,35.11,3.13,35.11,3.13l26.61-5.19s-11.11-6-61.52-6Z"/>
    <path class="cls-1" d="M985.92,409.1s-.56-.09-1.48-.21c-54.7-6.71-91.65-19.43-135.85-35.56-37.31-13.62-72.26-31.33-111.73-38.1-75.14-12.9-161.75-7.73-232.58,22.66,5.46.44,10.9,1.01,16.33,1.75,78.41,9.35,148.84,50.57,226.82,62.06,79.73,11.73,153.68-12.66,237.25-12.44h.02c.38-.03.76-.03,1.14-.03,0,0,.22-.02.08-.13Z"/>
    <path class="cls-1" d="M1048.52,429.87s-3.16-.02-7.12-.02c-5.93-.22-14.11-.49-18.76-.49-103.14,0-162.23,51.18-287.32,51.18-29.25,0-62.81-7.35-62.81-7.35,0,0,62.85,37.65,142.68,37.65,69.68,0,125.84-53.12,218.02-76.93,1.75-.44,6.05-1.49,9.64-2.38,1.86-.43,3.7-.84,5.51-1.2,0,0,.62-.25.16-.46Z"/>
    <path class="cls-1" d="M1021.57,444.73l-6.2,1.96c-36.45,12.22-69.48,31.16-104,47.95-32.32,15.72-66.88,25.78-99.18,26.05-38.66.33-75.56-9.43-115.25-26.94-108.1-47.69-222.77-133.83-345.86-91.76-3.95,1.18-6.55,1.88-6.55,1.88-.63.51.35.48.35.48,2.95-.27,6.03-.48,9.15-.65,69.32-2.42,117.85,50.95,167.15,93.19,54.97,47.09,117.01,77.85,190.74,77.85,68.5,0,134.09-16.54,192.87-51.92,38.07-22.9,72.65-50.96,110.05-73.74,2.26-1.36,4.51-2.65,6.72-3.85,0,0,.72-.46.02-.52Z"/>
  </g>
  <rect class="cls-1" x="1248.58" y="411.04" width="1.99" height="356.41"/>
</svg>